<?xml version="1.0" encoding="UTF-8"?>
<svg id="Layer_1" data-name="Layer 1" xmlns="http://www.w3.org/2000/svg" xmlns:xlink="http://www.w3.org/1999/xlink" viewBox="0 0 285.05 252.02">
  <defs>
    <style>
      .cls-1 {
        fill: url(#linear-gradient);
      }

      .cls-2 {
        fill: #fff;
        font-family: Cubano-Regular, Cubano;
        font-size: 39.3px;
        stroke: #231f20;
        stroke-miterlimit: 10;
      }
    </style>
    <linearGradient id="linear-gradient" x1="142.27" y1="14.09" x2="142.27" y2="157.97" gradientUnits="userSpaceOnUse">
      <stop offset=".05" stop-color="#f79052"/>
      <stop offset=".94" stop-color="#f1686f"/>
    </linearGradient>
  </defs>
  <g>
    <path class="cls-1" d="m149.17,0l.24.61c-8.95,30.68-14.61,50.95-16.97,60.79-1.95,10.5-2.93,18.72-2.93,24.66v3.66c0,16.52,5.65,42.6,16.97,78.25l3.91,18.07-.61.24c-7.89-.9-16.4-4.31-25.51-10.25-10.34-7.65-15.91-12.17-16.72-13.55-1.3-13.02-4.03-32.55-8.18-58.59-.9-7.49-1.34-14.93-1.34-22.34,0-3.66.2-9.56.61-17.7v-.61h-.24c-3.5,16.85-5.25,38.9-5.25,66.16-.9,11.56-1.67,18.8-2.32,21.73-8.63-3.82-16.16-5.74-22.58-5.74-.9.16-3.54.37-7.93.61v-.37c-3.09-17.17-6.02-39.51-8.79-67.02-.24-.16-1.14-5.29-2.69-15.38h-.37c.24,3.34.37,5.82.37,7.45v11.47c0,9.12-1.87,32.1-5.62,68.97,0,4.39-.98,6.59-2.93,6.59-19.37,15.87-32.8,24.78-40.28,26.73,0-1.55,4.92-24.09,14.77-67.63,1.71-11.23,2.56-20.87,2.56-28.93,0-15.95-5.13-43.13-15.38-81.54L.98.98l.61-.37c8.38,1.38,24.9,5.09,49.56,11.11l12.45,2.2c3.91,17.25,7.16,36.91,9.77,58.96h.73v-.37c0-5.94,4.27-26,12.82-60.18,30.68-7.4,47.16-11.11,49.44-11.11,5.94-.81,10.21-1.22,12.82-1.22Zm-64.57,69.82v1.1h.37v-1.1h-.37Z"/>
    <path class="cls-1" d="m160.89,6.23c15.38,2.52,29.42,5.58,42.11,9.16,9.93,2.85,26.2,4.27,48.83,4.27h.24c13.18,0,21.16,3.7,23.93,11.11.89,2.61,1.34,5.62,1.34,9.03,0,9.03-2.28,19.9-6.84,32.59-1.87,3.74-4.52,6.15-7.93,7.2-3.09.98-6.76,1.46-10.99,1.46h-1.34v.24c8.87,3.99,15.46,9.56,19.78,16.72,2.69,5.05,5.04,11.35,7.08,18.92,4.96,19.7,7.45,31.74,7.45,36.13v3.05c0,5.37-2.4,8.06-7.2,8.06-4.64-.41-12.21-3.7-22.71-9.89-8.38-3.82-15.83-5.74-22.34-5.74-9.93,0-22.54,5.98-37.84,17.94-14.65,10.58-26.21,17.74-34.67,21.48,0-.16-.08-.24-.24-.24,0-2.2,4.84-23.19,14.53-62.99,2.44-13.1,3.66-23.64,3.66-31.62,0-15.87-4.88-40.89-14.65-75.07l-2.69-11.6.49-.24Zm55.79,123.29c-.16,0-.24.08-.24.24h.24c10.25-3.34,15.38-6.1,15.38-8.3.57-1.87.85-3.78.85-5.74v-2.08c0-14.16-.94-21.24-2.81-21.24,0-.49-1.26-.81-3.78-.98-4.8.24-7.2.65-7.2,1.22l-2.44,36.87Zm.24-88.38c1.3,15.62,1.95,25.55,1.95,29.79h.24c8.06-.57,12.08-1.99,12.08-4.27.73,0,1.3-4.64,1.71-13.92,0-7.4-3.38-11.11-10.13-11.11l-5.86-.49Z"/>
  </g>
  <text class="cls-2" transform="translate(1.27 243.66)"><tspan x="0" y="0">AELA EXPANDED</tspan></text>
</svg>