<?xml version="1.0" encoding="UTF-8"?>
<svg id="Layer_1" data-name="Layer 1" xmlns="http://www.w3.org/2000/svg" xmlns:xlink="http://www.w3.org/1999/xlink" viewBox="0 0 610.03 112.79">
  <defs>
    <style>
      .cls-1 {
        fill: url(#linear-gradient);
      }
    </style>
    <linearGradient id="linear-gradient" x1="305.02" y1="6.03" x2="305.02" y2="97.01" gradientUnits="userSpaceOnUse">
      <stop offset=".2" stop-color="#f79250"/>
      <stop offset=".79" stop-color="#f26e6d"/>
    </linearGradient>
  </defs>
  <path class="cls-1" d="m89.5,0l.15.37c-5.37,18.41-8.77,30.57-10.18,36.47-1.17,6.3-1.76,11.23-1.76,14.79v2.2c0,9.91,3.39,25.56,10.18,46.95l2.34,10.84-.37.15c-4.74-.54-9.84-2.59-15.31-6.15-6.2-4.59-9.55-7.3-10.03-8.13-.78-7.81-2.42-19.53-4.91-35.16-.54-4.49-.81-8.96-.81-13.4,0-2.2.12-5.74.37-10.62v-.37h-.15c-2.1,10.11-3.15,23.34-3.15,39.7-.54,6.93-1,11.28-1.39,13.04-5.18-2.29-9.69-3.44-13.55-3.44-.54.1-2.12.22-4.76.37v-.22c-1.86-10.3-3.61-23.71-5.27-40.21-.15-.1-.68-3.17-1.61-9.23h-.22c.15,2,.22,3.49.22,4.47v6.88c0,5.47-1.12,19.26-3.37,41.38,0,2.64-.59,3.96-1.76,3.96-11.62,9.52-19.68,14.87-24.17,16.04,0-.93,2.95-14.45,8.86-40.58,1.03-6.74,1.54-12.52,1.54-17.36,0-9.57-3.08-25.88-9.23-48.93L.59.59l.37-.22c5.03.83,14.94,3.05,29.74,6.67l7.47,1.32c2.34,10.35,4.3,22.14,5.86,35.38h.44v-.22c0-3.56,2.56-15.6,7.69-36.11C70.56,2.96,80.44.73,81.81.73c3.56-.49,6.13-.73,7.69-.73Zm-38.75,41.89v.66h.22v-.66h-.22Z"/>
  <path class="cls-1" d="m112.43,1.61c1.42,0,9.25.83,23.51,2.49,14.45.1,22.73,2.86,24.83,8.28,1.12,2.44,1.68,4.74,1.68,6.88v.59c0,1.17-1.2,11.11-3.59,29.81v3.88c0,6.4,1.56,19.02,4.69,37.87v3.59c-.73,4.25-2.66,6.37-5.79,6.37h-.88c-.88,0-6.67-1.29-17.36-3.88h-3.59c-5.91,0-14.04,3.69-24.39,11.06-3.96,1.86-6.98,2.78-9.08,2.78-3.13,0-5.42-1.93-6.88-5.79-.39-1.42-.59-2.71-.59-3.88v-1.1c0-1.66,1.93-12.91,5.79-33.76.39-2.49.59-5.15.59-7.98v-3.59c0-4.74-1.66-16.72-4.98-35.96v-1.9c0-7.81,3.69-12.89,11.06-15.23,1.85-.34,3.52-.51,4.98-.51Zm12.96,22.12c.54,12.84.81,20.65.81,23.44v5.57c0,2.83-.37,11.77-1.1,26.81v2.2c.15,1.12.44,1.68.88,1.68h.51c3.96,0,6.27-1.49,6.96-4.47.34-2.2.51-5.22.51-9.08V29.81c0-6.84-.93-10.25-2.78-10.25-.29-.19-.73-.29-1.32-.29h-1.68c-1.86,0-2.78,1.49-2.78,4.47Z"/>
  <path class="cls-1" d="m185.67,1.61c1.42,0,9.25.83,23.51,2.49,14.45.1,22.73,2.86,24.83,8.28,1.12,2.44,1.68,4.74,1.68,6.88v.59c0,1.17-1.2,11.11-3.59,29.81v3.88c0,6.4,1.56,19.02,4.69,37.87v3.59c-.73,4.25-2.66,6.37-5.79,6.37h-.88c-.88,0-6.67-1.29-17.36-3.88h-3.59c-5.91,0-14.04,3.69-24.39,11.06-3.96,1.86-6.98,2.78-9.08,2.78-3.13,0-5.42-1.93-6.88-5.79-.39-1.42-.59-2.71-.59-3.88v-1.1c0-1.66,1.93-12.91,5.79-33.76.39-2.49.59-5.15.59-7.98v-3.59c0-4.74-1.66-16.72-4.98-35.96v-1.9c0-7.81,3.69-12.89,11.06-15.23,1.85-.34,3.52-.51,4.98-.51Zm12.96,22.12c.54,12.84.81,20.65.81,23.44v5.57c0,2.83-.37,11.77-1.1,26.81v2.2c.15,1.12.44,1.68.88,1.68h.51c3.96,0,6.27-1.49,6.96-4.47.34-2.2.51-5.22.51-9.08V29.81c0-6.84-.93-10.25-2.78-10.25-.29-.19-.73-.29-1.32-.29h-1.68c-1.86,0-2.78,1.49-2.78,4.47Z"/>
  <path class="cls-1" d="m242.21.51c2.34,0,10.72,2.05,25.12,6.15,9.62,20.9,14.43,32.18,14.43,33.84.15.05.51,1.07,1.1,3.08h.15l.15-1.17c0-4.59.32-15.82.95-33.69l10.47-1.68c.24,0,5.13-1.32,14.65-3.96l.15.37c-3.22,16.5-5.42,29.08-6.59,37.72-.34,3.56-.51,6.96-.51,10.18,0,8.89,2.07,23.76,6.23,44.6.83,4.83,1.25,7.72,1.25,8.64h-.15c-11.62-9.91-19.48-15.06-23.58-15.45-2.34-.68-3.52-1.27-3.52-1.76-4.3-9.13-7.94-18.41-10.91-27.83l-1.03-4.25h-.22c-2.15,22.61-3.22,35.6-3.22,38.96-7.47,5.96-13.04,10.3-16.7,13.04-3.27,2.25-6.2,3.96-8.79,5.13l-.15-.29c.73-4.64,3.42-17.63,8.06-38.96,1.17-7.13,1.76-13.16,1.76-18.09v-2.56c0-8.69-2.61-23.63-7.84-44.82l-1.61-7.03.37-.15Z"/>
  <path class="cls-1" d="m316.26,3.74c9.23,1.51,17.65,3.35,25.27,5.49,5.96,1.71,15.72,2.56,29.3,2.56h.15c7.91,0,12.7,2.22,14.36,6.67.54,1.56.81,3.37.81,5.42,0,5.42-1.37,11.94-4.1,19.56-1.12,2.25-2.71,3.69-4.76,4.32-1.86.59-4.05.88-6.59.88h-.81v.15c5.32,2.39,9.28,5.74,11.87,10.03,1.61,3.03,3.03,6.81,4.25,11.35,2.98,11.82,4.47,19.04,4.47,21.68v1.83c0,3.22-1.44,4.83-4.32,4.83-2.78-.24-7.32-2.22-13.62-5.93-5.03-2.29-9.5-3.44-13.4-3.44-5.96,0-13.53,3.59-22.71,10.77-8.79,6.35-15.72,10.64-20.8,12.89,0-.1-.05-.15-.15-.15,0-1.32,2.9-13.92,8.72-37.79,1.46-7.86,2.2-14.18,2.2-18.97,0-9.52-2.93-24.54-8.79-45.04l-1.61-6.96.29-.15Zm33.47,73.97c-.1,0-.15.05-.15.15h.15c6.15-2,9.23-3.66,9.23-4.98.34-1.12.51-2.27.51-3.44v-1.25c0-8.5-.56-12.74-1.68-12.74,0-.29-.76-.49-2.27-.59-2.88.15-4.32.39-4.32.73l-1.46,22.12Zm.15-53.03c.78,9.38,1.17,15.33,1.17,17.87h.15c4.83-.34,7.25-1.2,7.25-2.56.44,0,.78-2.78,1.03-8.35,0-4.44-2.03-6.67-6.08-6.67l-3.52-.29Z"/>
  <path class="cls-1" d="m412.72,1.61c1.42,0,9.25.83,23.51,2.49,14.45.1,22.73,2.86,24.83,8.28,1.12,2.44,1.68,4.74,1.68,6.88v.59c0,1.17-1.2,11.11-3.59,29.81v3.88c0,6.4,1.56,19.02,4.69,37.87v3.59c-.73,4.25-2.66,6.37-5.79,6.37h-.88c-.88,0-6.67-1.29-17.36-3.88h-3.59c-5.91,0-14.04,3.69-24.39,11.06-3.96,1.86-6.98,2.78-9.08,2.78-3.12,0-5.42-1.93-6.88-5.79-.39-1.42-.59-2.71-.59-3.88v-1.1c0-1.66,1.93-12.91,5.79-33.76.39-2.49.59-5.15.59-7.98v-3.59c0-4.74-1.66-16.72-4.98-35.96v-1.9c0-7.81,3.69-12.89,11.06-15.23,1.86-.34,3.52-.51,4.98-.51Zm12.96,22.12c.54,12.84.81,20.65.81,23.44v5.57c0,2.83-.37,11.77-1.1,26.81v2.2c.15,1.12.44,1.68.88,1.68h.51c3.96,0,6.27-1.49,6.96-4.47.34-2.2.51-5.22.51-9.08V29.81c0-6.84-.93-10.25-2.78-10.25-.29-.19-.73-.29-1.32-.29h-1.68c-1.86,0-2.78,1.49-2.78,4.47Z"/>
  <path class="cls-1" d="m469.63,1.25c22.71,5.42,35.64,8.13,38.82,8.13h2.86c2.98,0,6.62-.12,10.91-.37,6.69,0,10.42,3.61,11.21,10.84v1.03c-1.42,13.53-3.34,21.88-5.79,25.05-.83,1.37-3.86,2.05-9.08,2.05v.29c4.3,1.71,8.06,5.79,11.28,12.23,4.83,19.78,7.25,33.89,7.25,42.33-11.47-9.47-20.19-14.67-26.15-15.6-1.66,0-2.49-.22-2.49-.66v-24.76c0-6.05-.98-9.08-2.93-9.08h-1.1c-.2,0-1.17.1-2.93.29-1.17,19.68-1.76,31.86-1.76,36.55-5.96,4.05-13.09,9.25-21.39,15.6-5.42,3.61-8.69,5.42-9.81,5.42v-.37c0-.93,2.9-15.01,8.72-42.26.73-5.32,1.1-10.52,1.1-15.6,0-8.54-3.15-25.46-9.45-50.76l.73-.37Zm30.83,21.31c.49,6.1.83,11.99,1.03,17.65,4.64,0,6.96-2.15,6.96-6.45v-5.13c0-4.05-2.42-6.08-7.25-6.08h-.73Z"/>
  <path class="cls-1" d="m542.5.51c2.34,0,10.72,2.05,25.12,6.15,9.62,20.9,14.43,32.18,14.43,33.84.15.05.51,1.07,1.1,3.08h.15l.15-1.17c0-4.59.32-15.82.95-33.69l10.47-1.68c.24,0,5.13-1.32,14.65-3.96l.15.37c-3.22,16.5-5.42,29.08-6.59,37.72-.34,3.56-.51,6.96-.51,10.18,0,8.89,2.08,23.76,6.23,44.6.83,4.83,1.25,7.72,1.25,8.64h-.15c-11.62-9.91-19.48-15.06-23.58-15.45-2.34-.68-3.52-1.27-3.52-1.76-4.3-9.13-7.94-18.41-10.91-27.83l-1.03-4.25h-.22c-2.15,22.61-3.22,35.6-3.22,38.96-7.47,5.96-13.04,10.3-16.7,13.04-3.27,2.25-6.2,3.96-8.79,5.13l-.15-.29c.73-4.64,3.42-17.63,8.06-38.96,1.17-7.13,1.76-13.16,1.76-18.09v-2.56c0-8.69-2.61-23.63-7.84-44.82l-1.61-7.03.37-.15Z"/>
</svg>